<?xml version="1.0" encoding="utf-8"?>

<!-- License Agreement at http://iconmonstr.com/license/ -->

<!DOCTYPE svg PUBLIC "-//W3C//DTD SVG 1.1//EN" "http://www.w3.org/Graphics/SVG/1.1/DTD/svg11.dtd">
<svg version="1.1" xmlns="http://www.w3.org/2000/svg" xmlns:xlink="http://www.w3.org/1999/xlink" x="0px" y="0px"
	 width="512px" height="512px" viewBox="0 0 512 512" enable-background="new 0 0 512 512" xml:space="preserve">
<path id="coffee-2-icon" d="M222.609,164.953c77.81-70.13-16.099-66.428,1.912-114.953
	C162.407,112.687,247.665,114.093,222.609,164.953z M176.945,164.974c51.797-46.405-10.915-50.954,1.427-83.74
	C134.978,126.987,193.989,128.182,176.945,164.974z M359.617,215.76c-0.658,9.5-1.455,18.84-2.379,28.043h40.152
	c-9.451,33.785-28.857,66.171-54.559,90.657c-3.176,14.24-6.74,28.452-11.461,44.53c57.17-36.731,94.092-102.065,99.646-163.23
	H359.617z M80.982,179.161c4.42,129.94,30.195,207.97,62.494,282.839h127.496c31.564-72.614,58.113-154.01,62.494-282.839H80.982z
	 M123.103,297.375c-5.041-27.659-8.555-56.891-10.605-88.214H301.93c-2.178,32.582-5.918,61.729-10.777,88.214H123.103z"/>
</svg>
